<svg width="259" height="32" viewBox="0 0 259 32" fill="none" xmlns="http://www.w3.org/2000/svg">
<path d="M80.2019 12.0735C80.2019 5.02893 75.8069 1.04993 68.2892 1.04993H43.5869V31.4961H52.591V23.0972H64.1615L69.7756 31.6326H80.1699L73.5184 22.1838C77.7638 20.567 80.2019 16.8505 80.2019 12.0735ZM65.2308 15.8216H52.591V8.31502H65.2308C67.9684 8.31502 70.8878 8.31502 70.8878 12.0735C70.8878 15.8321 67.9363 15.8216 65.2308 15.8216Z" fill="black"/>
<path d="M98.2426 1.04993L82.2021 31.4961H91.9654L94.9169 25.7323H114.048L117.01 31.4961H126.634L110.679 1.04993H98.2426ZM98.3816 19.2022L104.466 7.28615L110.594 19.2022H98.3816Z" fill="black"/>
<path d="M129.425 31.5801H138.418V22.5722H158.993V15.0972H138.418V8.60898H161.602V1.09192H129.425V31.5801Z" fill="black"/>
<path d="M174.392 1.09192H165.388V31.5696H174.392V1.09192Z" fill="black"/>
<path d="M207.959 1.09192L197.126 12.5775H188.122V1.09192H179.129V31.5801H188.122V20.0945H197.126L207.959 31.5801H219.048L204.997 16.336L219.048 1.09192H207.959Z" fill="black"/>
<path d="M259 12.0735C259 5.02893 254.573 1.04993 247.024 1.04993H222.321V31.4961H231.325V23.0972H242.853L248.457 31.6326H258.851L252.199 22.1838C256.53 20.567 259 16.8505 259 12.0735ZM243.965 15.8216H231.347V8.31502H243.965C246.703 8.31502 249.611 8.31502 249.611 12.0735C249.611 15.8321 246.703 15.8216 243.965 15.8216Z" fill="black"/>
<path d="M18.8315 20.5564H30.0277C29.3647 22.4672 26.424 24.8084 20.0399 24.8084C12.8324 24.8084 9.11098 21.9003 9.11098 16.168C9.11098 10.4357 12.8324 7.70604 20.0399 7.70604C26.1566 7.70604 28.5948 9.5958 29.6642 11.3281H39.2884C38.1014 4.0105 31.3431 0 20.0399 0C7.11127 0 0 5.67979 0 16C0 26.0157 7.00434 32 18.7353 32C24.2853 32 28.8728 30.4987 32.113 27.6535L32.4017 31.5696H39.4168V14.2992H18.8315V20.5564Z" fill="black"/>
</svg>
